<?xml version="1.0" encoding="utf-8"?>
<!-- Generator: Adobe Illustrator 21.0.0, SVG Export Plug-In . SVG Version: 6.00 Build 0)  -->
<svg version="1.1" id="Layer_1" xmlns="http://www.w3.org/2000/svg" xmlns:xlink="http://www.w3.org/1999/xlink" x="0px" y="0px"
	 width="294.7px" height="207.1px" viewBox="0 0 294.7 207.1" style="enable-background:new 0 0 294.7 207.1;" xml:space="preserve"
	>
<style type="text/css">
	.st0{fill:#00AFEC;}
	.st1{fill:#EA148C;}
	.st2{fill:#F59331;}
	.st3{fill:none;stroke:#231F20;stroke-miterlimit:10;}
	.st4{font-family:'MyriadPro-Bold';}
	.st5{font-size:9.2757px;}
	.st6{fill:none;stroke:#231F20;stroke-width:0.8504;stroke-miterlimit:10;stroke-dasharray:2.8217,2.8217;}
</style>
<polygon class="st0" points="121.5,91.7 115.5,91.7 112.5,96.9 115.5,102.2 121.5,102.2 124.5,96.9 "/>
<polygon class="st0" points="103.4,81.3 97.4,81.3 94.4,86.5 97.4,91.7 103.4,91.7 106.4,86.5 "/>
<polygon class="st0" points="137.2,67.1 131.2,67.1 128.2,72.3 131.2,77.5 137.2,77.5 140.2,72.3 "/>
<polygon class="st0" points="183.5,56.7 177.5,56.7 174.5,61.9 177.5,67.1 183.5,67.1 186.5,61.9 "/>
<polygon class="st0" points="103.4,35.8 97.4,35.8 94.4,41 97.4,46.2 103.4,46.2 106.4,41 "/>
<polygon class="st1" points="227.8,132 221.8,132 218.8,137.3 221.8,142.5 227.8,142.5 230.9,137.3 "/>
<polygon class="st1" points="195.5,137.3 189.5,137.3 186.5,142.5 189.5,147.7 195.5,147.7 198.5,142.5 "/>
<polygon class="st1" points="221.8,91.7 215.8,91.7 212.8,96.9 215.8,102.2 221.8,102.2 224.8,96.9 "/>
<polygon class="st1" points="185.8,102 179.8,102.3 177,107.6 180.3,112.7 186.3,112.4 189,107.1 "/>
<polygon class="st1" points="162.7,131.9 156.7,132.2 153.9,137.5 157.2,142.6 163.2,142.3 166,137 "/>
<polygon class="st2" points="89.3,108.3 83.3,108.5 80.5,113.9 83.8,119 89.8,118.7 92.6,113.3 "/>
<polygon class="st2" points="115.2,161.9 109.2,162.2 106.5,167.6 109.7,172.6 115.7,172.3 118.5,167 "/>
<polygon class="st2" points="121.2,126.7 115.2,127 112.5,132.3 115.7,137.4 121.7,137.1 124.5,131.8 "/>
<polygon class="st2" points="71.1,126.7 65.1,127 62.3,132.3 65.6,137.4 71.6,137.1 74.3,131.8 "/>
<polygon class="st3" points="162.7,104.7 154.7,105.1 151.1,112.2 155.4,119 163.4,118.6 167,111.5 "/>
<polygon class="st2" points="56.7,86.4 50.7,86.7 47.9,92 51.2,97.1 57.2,96.8 60,91.4 "/>
<polygon class="st1" points="168.2,81.2 162.2,81.4 159.4,86.8 162.6,91.9 168.7,91.6 171.4,86.2 "/>
<text transform="matrix(1 0 0 1 157.0869 115.2444)" class="st4 st5">?</text>
<g>
	<circle class="st6" cx="159.4" cy="112" r="35.9"/>
</g>
</svg>
